# xmcd
# 
# Track frame offsets:
#     150
#     17135
#     35050
#     54225
#     70255
#     88807
#     111277
#     125102
#     136007
#     151755
#     161335
#     181772
# 
# Disc length: 2707
# 
# Revision: 10
# Processed by: cddbd v1.5.2PL0 Copyright (c) Steve Scherf et al.
# Submitted via: fre:ac v1.0.17
# 
DISCID=980a910c
DTITLE=Various Artist - New Country - December 1995
DYEAR=1995
DGENRE=Country
TTITLE0=Michael Johnson - Cain's Blood
TTITLE1=Kate Wallace - Hard Woman To Love
TTITLE2=Ken Holloway with Lari White - I'm Not Gonna Fall To Pieces
TTITLE3=Nashville Bluegrass Band - You Wouldn't Know Love
TTITLE4=Curtis Day - I Can Do It In My Sleep
TTITLE5=Four Bitchin' Babes - My Mother's Hands
TTITLE6=Brother Boys - Let's Shake Loose
TTITLE7=Michael Martin Murphey - A Hundred Years From Now
TTITLE8=Cliff Eberhardt - Brave Little Grey
TTITLE9=Ralph Stanley and The Clinch Mountain Boys - Katy Daly
TTITLE10=Rosalie Sorrels - Nevada Moon
TTITLE11=Austin Lounge Lizards - Old Blevins
EXTD=
EXTT0=
EXTT1=
EXTT2=
EXTT3=
EXTT4=
EXTT5=
EXTT6=
EXTT7=
EXTT8=
EXTT9=
EXTT10=
EXTT11=
PLAYORDER=
